<svg xmlns="http://www.w3.org/2000/svg" xmlns:svg="http://www.w3.org/2000/svg" id="svg1" width="32" height="32" version="1.1" viewBox="0 0 32 32"><defs id="defs1"><rect id="rect13" width="7.015" height="4.417" x="9.007" y="27.064"/><rect id="rect11" width="15.762" height="3.074" x="2.771" y="29.792"/><rect id="rect10" width="26.577" height="5.389" x=".367" y="29.639"/><clipPath id="clipPath9" clipPathUnits="userSpaceOnUse"><path id="path9" style="fill:red;fill-opacity:1;fill-rule:nonzero;stroke:none" d="m 13.853516,3.5703125 v 6.6874995 c 0.06321,-4.27e-4 0.126534,-0.0015 0.189453,-0.002 0.07956,-7e-4 0.158771,-7.06e-4 0.238281,-0.0039 0.05981,-0.0029 0.118594,-0.0075 0.177734,-0.01758 0.0597,-0.008 0.120222,-0.01193 0.179688,-0.0098 0.05947,0.0022 0.119308,0.01228 0.177734,0.0293 0.06754,0.01837 0.133858,0.03817 0.199219,0.0625 0.08969,8.45e-4 0.179961,6.96e-4 0.269531,0.0059 0.232476,0.02308 0.296721,0.0096 0.421875,0.361328 0.01274,0.0358 -0.0038,0.07315 -0.02344,0.109375 0.01239,0.03252 0.0234,0.06581 0.03711,0.09766 -0.06585,0.09006 -0.1208,0.188892 -0.195312,0.271484 0.165408,-0.02205 0.266678,-0.0012 0.318359,0.236329 0.114414,0.02409 0.151338,0.136499 0.228516,0.523437 0.01,0.04995 -0.07459,0.06974 -0.117188,0.09766 -0.04222,0.02767 -0.09061,0.04781 -0.136719,0.06836 -0.165815,0.07389 -0.278948,0.109365 -0.455078,0.171875 -0.02662,0.0093 -0.05346,0.01803 -0.08008,0.02734 0.265699,0.0028 0.665752,-0.01267 0.626953,0.439453 -0.02374,0.27669 -0.454507,0.317772 -0.61914,0.357422 -0.01173,0.0019 -0.02342,0.004 -0.03516,0.0059 0.04506,0.01489 0.08175,0.02834 0.0957,0.04492 0.08595,0.102147 0.118115,0.239933 0.177735,0.359375 -0.01576,0.01532 -0.02973,0.0328 -0.04492,0.04883 0.04929,-5.24e-4 0.09915,-0.0013 0.148437,-0.002 0.03089,-0.04752 0.145803,-0.225613 0.166016,-0.251954 0.165464,-0.215607 0.261232,-0.202134 0.611328,0.144532 0.01485,0.0147 -0.01326,0.118359 -0.04687,0.224609 0.128682,-0.10279 0.315784,-0.236518 0.453125,-0.138672 0.01203,0.0086 0.01852,0.01696 0.0293,0.02539 0.117259,-0.141372 0.284668,-0.295429 0.441406,-0.210938 0.06048,0.0326 0.109439,0.08281 0.152344,0.138672 0.09132,-0.04214 0.178592,-0.04393 0.292969,0 0.02646,-0.0026 0.05194,-0.0031 0.07813,0.0039 0.188462,0.0502 0.248112,0.184668 0.261719,0.332032 0.02798,-0.01547 0.05737,-0.02839 0.0918,-0.0332 0.08304,-0.01162 0.165237,0.02592 0.248047,0.03906 0.04279,0.04454 0.09278,0.08272 0.128907,0.132813 0.02337,0.03241 0.03827,0.0756 0.04883,0.121093 0.09218,-0.0546 0.196419,-0.08014 0.314453,-0.03906 l 0.002,0.002 c 0.02555,-0.123204 0.06346,-0.243142 0.142578,-0.34375 0.01796,-0.02284 0.04087,-0.04306 0.06055,-0.06445 0.13622,-0.120312 0.316446,-0.161876 0.490234,-0.103516 0.02843,0.0095 0.0546,0.02497 0.08203,0.03711 0.02901,0.0213 0.06066,0.03883 0.08594,0.06445 0.09394,0.0952 0.132759,0.198687 0.144531,0.310547 0.04252,-0.07273 0.10356,-0.132894 0.199219,-0.152344 0.08991,-0.01828 0.187886,0.0052 0.271484,0.04297 0.0048,0.0022 0.0091,0.0054 0.01367,0.0078 0.08045,-0.19311 0.214233,-0.312325 0.496094,-0.21875 0.02322,0.0077 0.04311,0.01797 0.06055,0.03125 0.0011,-0.0017 8.47e-4,-0.0042 0.002,-0.0059 0.02467,-0.03649 0.05455,-0.06909 0.08203,-0.103516 0.07565,-0.03148 0.144723,-0.08965 0.226563,-0.09375 0.173871,-0.0087 0.310377,0.101463 0.40625,0.236328 0.05694,-0.06804 0.125584,-0.124874 0.21875,-0.130859 0.09423,-0.0061 0.190344,0.02188 0.277344,0.05859 0.05534,0.02335 0.1086,0.08724 0.154296,0.148437 0.01388,-0.02736 0.02924,-0.0546 0.04297,-0.08203 0.03614,-0.036 0.0624,-0.08753 0.109375,-0.107422 0.198991,-0.08427 0.286789,-0.08039 0.449219,0.03516 0.09501,0.06759 0.14631,0.17634 0.1875,0.283203 0.05394,-0.05137 0.122811,-0.08517 0.207031,-0.09375 0.03082,-0.06941 0.06349,-0.139094 0.101563,-0.205078 0.127483,-0.186386 0.34564,-0.251694 0.55664,-0.177734 0.0339,0.01189 0.06382,0.03228 0.0957,0.04883 0.06469,0.04199 0.117474,0.09379 0.16211,0.152344 0.08411,0.04022 0.168231,0.11999 0.236328,0.248047 0.03587,0.06746 0.0196,0.0323 0.05078,0.101562 0.03672,0.103041 0.0637,0.212104 0.0625,0.322266 -0.0042,0.0751 -0.01202,0.148866 -0.02734,0.222656 -0.0094,0.04342 -0.02104,0.08534 -0.02734,0.128906 -0.002,0.04598 -0.0018,0.102234 -0.002,0.152344 -1.5e-5,0.06151 8.4e-5,0.124037 0,0.185547 -1.04e-4,0.06285 5.44e-4,0.12465 0,0.1875 -7e-4,0.06888 -0.0027,0.138211 -0.0059,0.207031 -0.0036,0.06846 -0.0086,0.137191 -0.01953,0.205078 h 5.160156 V 3.5703125 Z m 9.033203,10.3867185 c -0.0039,0.0048 -0.0063,0.02156 -0.0078,0.0293 -0.0011,0.0058 -0.0011,0.01178 -0.002,0.01758 0.0031,-0.0043 0.0043,-0.0069 0.0078,-0.01172 0.0021,-0.01156 0.01416,-0.02686 0.0059,-0.03516 -0.0019,-0.0019 -0.0026,-0.0016 -0.0039,0 z m -3.351563,0.09375 c -0.0024,0.0048 -0.0019,0.01066 -0.0039,0.01563 0.0037,-0.0038 0.0085,-0.0073 0.01172,-0.01172 4e-4,-0.0022 -0.0011,-0.01761 -0.0078,-0.0039 z m 2.605469,0.0059 c -0.0051,-0.002 -0.0078,0.0079 -0.01172,0.01172 -0.0025,0.0048 -0.0035,0.01072 -0.0059,0.01563 0.0046,-0.004 0.009,-0.008 0.01367,-0.01172 0.0039,-0.0031 0.0085,-0.01373 0.0039,-0.01563 z m 1.664063,0.144531 c -0.0011,0.0027 -0.0028,0.0051 -0.0039,0.0078 0.0013,0.0036 0.0046,0.0062 0.0059,0.0098 -4.92e-4,-0.0059 -0.0014,-0.01164 -0.002,-0.01758 z"/></clipPath><clipPath id="clipPath10" clipPathUnits="userSpaceOnUse"><path id="path10" style="fill:red;fill-opacity:1;fill-rule:nonzero;stroke:none" d="M 6.0371094,8.6914062 V 25.097656 H 26.130859 V 8.6914062 Z m 8.6015626,1.5332028 c 0.05947,0.0022 0.119308,0.01228 0.177734,0.0293 0.06754,0.01837 0.133858,0.03817 0.199219,0.0625 0.08969,8.45e-4 0.179961,6.96e-4 0.269531,0.0059 0.232476,0.02308 0.296721,0.0096 0.421875,0.361328 0.01274,0.0358 -0.0038,0.07315 -0.02344,0.109375 0.01239,0.03252 0.0234,0.06581 0.03711,0.09766 -0.06585,0.09006 -0.1208,0.188892 -0.195312,0.271484 0.165408,-0.02205 0.266678,-0.0012 0.318359,0.236329 0.114414,0.02409 0.151338,0.136499 0.228516,0.523437 0.01,0.04995 -0.07459,0.06974 -0.117188,0.09766 -0.04222,0.02767 -0.09061,0.04781 -0.136719,0.06836 -0.165815,0.07389 -0.278948,0.109365 -0.455078,0.171875 -0.02662,0.0093 -0.05346,0.01803 -0.08008,0.02734 0.265699,0.0028 0.665752,-0.01267 0.626953,0.439453 -0.02374,0.27669 -0.454507,0.317772 -0.61914,0.357422 -0.01173,0.0019 -0.02342,0.004 -0.03516,0.0059 0.04506,0.01489 0.08175,0.02834 0.0957,0.04492 0.08595,0.102147 0.118115,0.239933 0.177735,0.359375 -0.01576,0.01532 -0.02973,0.0328 -0.04492,0.04883 0.04929,-5.24e-4 0.09915,-0.0013 0.148437,-0.002 0.03089,-0.04752 0.145803,-0.225613 0.166016,-0.251954 0.165464,-0.215607 0.261232,-0.202134 0.611328,0.144532 0.01485,0.0147 -0.01326,0.118359 -0.04687,0.224609 0.128682,-0.10279 0.315784,-0.236518 0.453125,-0.138672 0.01203,0.0086 0.01852,0.01696 0.0293,0.02539 0.117259,-0.141372 0.284668,-0.295429 0.441406,-0.210938 0.06048,0.0326 0.109439,0.08281 0.152344,0.138672 0.09132,-0.04214 0.178592,-0.04393 0.292969,0 0.02646,-0.0026 0.05194,-0.0031 0.07813,0.0039 0.188462,0.0502 0.248112,0.184668 0.261719,0.332032 0.02798,-0.01547 0.05737,-0.02839 0.0918,-0.0332 0.08304,-0.01162 0.165237,0.02592 0.248047,0.03906 0.04279,0.04454 0.09278,0.08272 0.128907,0.132813 0.02337,0.03241 0.03827,0.0756 0.04883,0.121093 0.09218,-0.0546 0.196419,-0.08014 0.314453,-0.03906 l 0.002,0.002 c 0.02555,-0.123204 0.06346,-0.243142 0.142578,-0.34375 0.01796,-0.02284 0.04087,-0.04306 0.06055,-0.06445 0.13622,-0.120312 0.316446,-0.161876 0.490234,-0.103516 0.02843,0.0095 0.0546,0.02497 0.08203,0.03711 0.02901,0.0213 0.06066,0.03883 0.08594,0.06445 0.09394,0.0952 0.132759,0.198687 0.144531,0.310547 0.04252,-0.07273 0.10356,-0.132894 0.199219,-0.152344 0.08991,-0.01828 0.187886,0.0052 0.271484,0.04297 0.0048,0.0022 0.0091,0.0054 0.01367,0.0078 0.08045,-0.19311 0.214233,-0.312325 0.496094,-0.21875 0.02322,0.0077 0.04311,0.01797 0.06055,0.03125 0.0011,-0.0017 8.47e-4,-0.0042 0.002,-0.0059 0.02467,-0.03649 0.05455,-0.06909 0.08203,-0.103516 0.07565,-0.03148 0.144723,-0.08965 0.226563,-0.09375 0.173871,-0.0087 0.310377,0.101463 0.40625,0.236328 0.05694,-0.06804 0.125584,-0.124874 0.21875,-0.130859 0.09423,-0.0061 0.190344,0.02188 0.277344,0.05859 0.05534,0.02335 0.1086,0.08724 0.154296,0.148437 0.01388,-0.02736 0.02924,-0.0546 0.04297,-0.08203 0.03614,-0.036 0.0624,-0.08753 0.109375,-0.107422 0.198991,-0.08427 0.286789,-0.08039 0.449219,0.03516 0.09501,0.06759 0.14631,0.17634 0.1875,0.283203 0.05394,-0.05137 0.122811,-0.08517 0.207031,-0.09375 0.03082,-0.06941 0.06349,-0.139094 0.101563,-0.205078 0.127483,-0.186386 0.34564,-0.251694 0.55664,-0.177734 0.0339,0.01189 0.06382,0.03228 0.0957,0.04883 0.06469,0.04199 0.117474,0.09379 0.16211,0.152344 0.08411,0.04022 0.168231,0.11999 0.236328,0.248047 0.03587,0.06746 0.0196,0.0323 0.05078,0.101562 0.03672,0.103041 0.0637,0.212104 0.0625,0.322266 -0.0042,0.0751 -0.01202,0.148866 -0.02734,0.222656 -0.0094,0.04342 -0.02104,0.08534 -0.02734,0.128906 -0.002,0.04598 -0.0018,0.102234 -0.002,0.152344 -1.5e-5,0.06151 8.4e-5,0.124037 0,0.185547 -1.04e-4,0.06285 5.44e-4,0.12465 0,0.1875 -7e-4,0.06888 -0.0027,0.138211 -0.0059,0.207031 -0.0045,0.08477 -0.0089,0.170816 -0.02734,0.253906 -0.01832,0.07696 -0.04283,0.152383 -0.07031,0.226563 -0.02456,0.056 -0.04955,0.112402 -0.08203,0.164062 -0.03606,0.08546 -0.05672,0.178836 -0.103516,0.259766 -0.04914,0.04813 -0.08175,0.125718 -0.148437,0.142578 -0.262756,0.06643 -0.419671,-0.0335 -0.478516,-0.248047 -0.03138,0.002 -0.06098,0.0032 -0.0918,-0.002 -0.168146,-0.02801 -0.289873,-0.158065 -0.367187,-0.300781 -0.01969,0.01654 -0.04032,0.03284 -0.0625,0.04492 -0.04073,0.02218 -0.08596,0.03524 -0.128907,0.05273 -0.07262,-0.0088 -0.153338,0.009 -0.216796,-0.02734 -0.034,-0.0195 -0.06066,-0.04154 -0.08398,-0.06445 -0.06608,0.204055 -0.154484,0.401536 -0.316406,0.546875 -0.03002,0.02696 -0.06474,0.04698 -0.09766,0.07031 -0.0299,0.01515 -0.05869,0.03255 -0.08984,0.04492 -0.151536,0.06017 -0.332748,0.06637 -0.464844,-0.04492 -0.03528,-0.02973 -0.06414,-0.06791 -0.0957,-0.101563 -0.01685,-0.03553 -0.03772,-0.06838 -0.05078,-0.105468 -0.01665,-0.04727 -0.02097,-0.09586 -0.02148,-0.144532 -0.02365,0.03831 -0.04762,0.07697 -0.07422,0.113282 -0.03511,0.04794 -0.06203,0.110238 -0.115235,0.136718 -0.112439,0.05595 -0.24226,0.06603 -0.363281,0.09961 -0.06105,-0.04446 -0.128001,-0.07964 -0.181641,-0.132813 -0.02737,-0.02713 -0.04152,-0.06534 -0.05469,-0.101562 -0.0074,-0.02038 -0.01113,-0.04203 -0.01563,-0.0625 -0.05656,0.07006 -0.12251,0.133712 -0.199219,0.162109 -0.191367,0.07083 -0.277671,0.04119 -0.433594,-0.08789 -0.03264,-0.02702 -0.04253,-0.07312 -0.06445,-0.109375 -0.01027,-0.03782 -0.02475,-0.07463 -0.03125,-0.113281 -0.01437,-0.08589 1.72e-4,-0.170434 0.02148,-0.253906 -0.08121,0.05836 -0.164707,0.09663 -0.25,0.113281 -0.01134,0.007 -0.02137,0.01496 -0.0332,0.02148 -0.105772,0.04393 -0.157504,0.07717 -0.283203,0.06641 -0.06588,-0.0056 -0.124504,-0.02409 -0.175781,-0.05469 -0.05678,0.155058 -0.160971,0.340258 -0.302734,0.429688 -0.04725,0.02981 -0.101764,0.04658 -0.152344,0.07031 -0.04218,0.0046 -0.08452,0.01334 -0.126953,0.01367 -0.135764,0.0011 -0.268247,-0.06381 -0.378906,-0.134765 -0.02346,-0.02246 -0.04996,-0.0411 -0.07031,-0.06641 -0.0297,-0.03692 -0.04976,-0.07808 -0.06641,-0.11914 -0.02215,0.01381 -0.04504,0.02628 -0.06641,0.04102 -0.03623,0.01142 -0.07007,0.0263 -0.107422,0.0332 -0.170169,0.03148 -0.329853,-0.02838 -0.441406,-0.15039 -0.143303,0.195222 -0.305585,0.374931 -0.529297,0.482422 -0.0536,0.02575 -0.112029,0.04039 -0.167969,0.06055 -0.16814,0.02054 -0.203053,0.04213 -0.371094,-0.0098 -0.163821,-0.0506 -0.313282,-0.19507 -0.351562,-0.365234 -0.01449,-0.06441 6.94e-4,-0.131136 0.002,-0.197266 -0.04037,0.06916 -0.08232,0.138242 -0.126953,0.205078 -0.120537,0.127601 -0.266808,0.344872 -0.494141,0.294922 -0.196983,-0.04328 -0.28743,-0.154101 -0.328125,-0.289063 -0.07036,-0.01297 -0.142835,-0.02823 -0.195312,-0.07422 -0.168261,-0.147471 -0.171475,-0.272683 -0.115235,-0.453125 -0.0067,0.0013 -0.01283,0.0047 -0.01953,0.0059 -0.01286,0.0022 -0.02612,0.0024 -0.03906,0.0039 -0.457213,0.257718 -0.915334,0.513249 -1.388671,0.740235 -0.0591,0.01413 -0.123105,0.06957 -0.177735,0.04297 -0.142309,-0.06928 -0.304881,-0.157581 -0.363281,-0.304687 -0.06611,-0.166526 0.205895,-0.440086 0.296875,-0.535156 0.08857,-0.09256 0.201686,-0.195663 0.310547,-0.294922 -0.07052,-0.0058 -0.13505,-0.01338 -0.179688,-0.02344 -0.109665,-0.02471 -0.263149,-0.01341 -0.318359,-0.111328 -0.20619,-0.365715 -0.115193,-0.511412 0.140625,-0.621094 0.06507,-0.0279 0.136818,-0.03788 0.205078,-0.05664 0.04229,-0.01112 0.08464,-0.02217 0.126953,-0.0332 -0.04359,8.8e-5 -0.08727,4.27e-4 -0.130859,0 -0.09061,-9e-4 -0.201825,0.05015 -0.271485,-0.0078 -0.0061,-0.005 -0.01176,-0.01036 -0.01758,-0.01563 -0.015,0.0011 -0.02529,-9.15e-4 -0.02344,-0.01758 l 0.002,-0.002 c -0.08059,-0.08026 -0.138416,-0.181398 -0.195313,-0.283203 -0.526821,0.006 -1.053259,0.01177 -1.580078,0.01758 -0.04835,0.01338 -0.103062,0.03541 -0.113281,0.002 -0.0026,2.8e-5 -0.0052,-2.8e-5 -0.0078,0 -0.0064,-0.204802 -0.06369,-0.415149 -0.01953,-0.615234 0.01125,-0.05091 0.10411,-0.0037 0.15625,-0.0059 0.09023,-0.0038 0.179303,-0.0079 0.269531,-0.01172 0.466716,-0.01986 0.934064,-0.0407 1.400391,-0.06836 0.330586,-0.022 0.59458,-0.03869 0.902344,-0.06641 -0.0646,-0.01393 -0.129113,-0.02723 -0.193359,-0.04297 -0.126483,-0.03179 -0.25139,-0.06431 -0.376954,-0.09766 -0.182798,0.01252 -0.36612,0.02528 -0.548828,0.03711 -0.100899,0.0062 -0.201774,0.01443 -0.302734,0.01953 -0.06636,0.0034 -0.133109,0.01256 -0.199219,0.0059 -0.305649,-0.0311 -0.330796,-0.172938 -0.138672,-0.566406 -0.07862,-0.05536 -0.149414,-0.111869 -0.179687,-0.16211 -0.07021,-0.116526 -0.07953,-0.260474 -0.119141,-0.390625 0.05265,-0.0843 0.0895,-0.182086 0.158203,-0.253906 0.07794,-0.08149 0.287434,-0.140596 0.388672,-0.166016 0.240628,-0.06043 0.489174,-0.08861 0.734375,-0.125 0.165097,-0.111639 0.353461,-0.186664 0.533203,-0.271484 0.01577,-0.0069 0.0311,-0.01462 0.04687,-0.02148 0.333758,-0.393045 -0.906648,-0.114879 -0.414062,-0.44336 0.05572,-0.03716 0.115074,-0.06782 0.175781,-0.09375 -0.02427,-0.01205 -0.0031,-0.06367 0.02734,-0.15039 -0.02987,-0.462528 -0.135653,-0.454997 0.08398,-0.455079 0.08447,-2e-5 0.169436,9.8e-5 0.253906,0 0.09017,-1.22e-4 0.181325,-0.0013 0.271485,-0.002 0.07956,-7e-4 0.158771,-7.06e-4 0.238281,-0.0039 0.05981,-0.0029 0.118594,-0.0075 0.177734,-0.01758 0.0597,-0.008 0.120222,-0.01193 0.179688,-0.0098 z m -1.898438,2.136719 c -0.05157,0.0083 -0.103143,0.01703 -0.154296,0.02734 0.04826,0.02676 0.09645,0.05296 0.146484,0.07617 0.01152,0.0053 0.02361,0.0085 0.03516,0.01367 -0.01428,-0.03764 -0.02493,-0.07692 -0.02734,-0.117188 z m -0.408203,0.09375 c -0.0073,0.003 -0.01432,0.0064 -0.02148,0.0098 -0.01748,0.0081 -0.05962,0.04876 -0.04297,0.03906 0.02326,-0.01361 0.04311,-0.03228 0.06445,-0.04883 z m 10.554688,1.501953 c -0.0039,0.0048 -0.0063,0.02156 -0.0078,0.0293 -0.0011,0.0058 -0.0011,0.01178 -0.002,0.01758 0.0031,-0.0043 0.0043,-0.0069 0.0078,-0.01172 0.0021,-0.01156 0.01416,-0.02686 0.0059,-0.03516 -0.0019,-0.0019 -0.0026,-0.0016 -0.0039,0 z m -3.351563,0.09375 c -0.0024,0.0048 -0.0019,0.01066 -0.0039,0.01563 0.0037,-0.0038 0.0085,-0.0073 0.01172,-0.01172 4e-4,-0.0022 -0.0011,-0.01761 -0.0078,-0.0039 z m 2.605469,0.0059 c -0.0051,-0.002 -0.0078,0.0079 -0.01172,0.01172 -0.0025,0.0048 -0.0035,0.01072 -0.0059,0.01563 0.0046,-0.004 0.009,-0.008 0.01367,-0.01172 0.0039,-0.0031 0.0085,-0.01373 0.0039,-0.01563 z m 1.664063,0.144531 c -0.0011,0.0027 -0.0028,0.0051 -0.0039,0.0078 0.0013,0.0036 0.0046,0.0062 0.0059,0.0098 -4.92e-4,-0.0059 -0.0014,-0.01164 -0.002,-0.01758 z m -10.464844,0.976562 c -0.01315,0.0036 -0.02591,0.0081 -0.03906,0.01172 0.01286,-1.62e-4 0.03391,0.01246 0.03711,0 9.77e-4,-0.0038 10e-4,-0.0079 0.002,-0.01172 z m 4.6875,0.482422 c 0.004,0.01307 0.0089,0.02298 0.0098,0.01367 -0.0025,-0.0053 -0.0068,-0.0089 -0.0098,-0.01367 z m 0.71289,0.269532 c 3.63e-4,0.01669 8.04e-4,0.03866 0.002,0.0332 0.0023,-0.01121 0.003,-0.02257 0.002,-0.0332 -0.0038,-0.02789 -0.0043,-0.01669 -0.0039,0 z m 1.857422,0.02148 c -0.0026,0.0098 -0.0062,0.01935 -0.0078,0.0293 -3e-4,0.002 0.0021,0.0048 0.0039,0.0039 0.01057,-0.0049 0.0075,-0.01935 0.0039,-0.0332 z m 0.714844,0.113281 c -0.001,0.0084 -0.0018,0.01692 -0.002,0.02539 0,0.0023 0.0038,0.0082 0.0039,0.0059 2.67e-4,-0.0063 -0.0012,-0.01914 -0.002,-0.03125 z m 0.820312,0.04687 c -0.0053,0.01604 -0.0088,0.02812 -0.002,0.02734 0.0059,-6.73e-4 0.0055,-0.01126 0.002,-0.02734 z m -5.40039,0.0332 c -0.03953,0.04971 -0.04244,0.04741 -0.01367,0.04687 0.0081,-0.02845 0.01019,-0.03504 0.01367,-0.04687 z"/></clipPath><rect id="rect13-8" width="7.015" height="4.417" x="9.007" y="27.064"/><rect id="rect11-4" width="15.762" height="3.074" x="2.771" y="29.792"/><rect id="rect10-2" width="26.577" height="5.389" x=".367" y="29.639"/><clipPath id="clipPath10-0" clipPathUnits="userSpaceOnUse"><path id="path10-2" style="fill:red;fill-opacity:1;fill-rule:nonzero;stroke:none" d="M 6.0371094,8.6914062 V 25.097656 H 26.130859 V 8.6914062 Z m 8.6015626,1.5332028 c 0.05947,0.0022 0.119308,0.01228 0.177734,0.0293 0.06754,0.01837 0.133858,0.03817 0.199219,0.0625 0.08969,8.45e-4 0.179961,6.96e-4 0.269531,0.0059 0.232476,0.02308 0.296721,0.0096 0.421875,0.361328 0.01274,0.0358 -0.0038,0.07315 -0.02344,0.109375 0.01239,0.03252 0.0234,0.06581 0.03711,0.09766 -0.06585,0.09006 -0.1208,0.188892 -0.195312,0.271484 0.165408,-0.02205 0.266678,-0.0012 0.318359,0.236329 0.114414,0.02409 0.151338,0.136499 0.228516,0.523437 0.01,0.04995 -0.07459,0.06974 -0.117188,0.09766 -0.04222,0.02767 -0.09061,0.04781 -0.136719,0.06836 -0.165815,0.07389 -0.278948,0.109365 -0.455078,0.171875 -0.02662,0.0093 -0.05346,0.01803 -0.08008,0.02734 0.265699,0.0028 0.665752,-0.01267 0.626953,0.439453 -0.02374,0.27669 -0.454507,0.317772 -0.61914,0.357422 -0.01173,0.0019 -0.02342,0.004 -0.03516,0.0059 0.04506,0.01489 0.08175,0.02834 0.0957,0.04492 0.08595,0.102147 0.118115,0.239933 0.177735,0.359375 -0.01576,0.01532 -0.02973,0.0328 -0.04492,0.04883 0.04929,-5.24e-4 0.09915,-0.0013 0.148437,-0.002 0.03089,-0.04752 0.145803,-0.225613 0.166016,-0.251954 0.165464,-0.215607 0.261232,-0.202134 0.611328,0.144532 0.01485,0.0147 -0.01326,0.118359 -0.04687,0.224609 0.128682,-0.10279 0.315784,-0.236518 0.453125,-0.138672 0.01203,0.0086 0.01852,0.01696 0.0293,0.02539 0.117259,-0.141372 0.284668,-0.295429 0.441406,-0.210938 0.06048,0.0326 0.109439,0.08281 0.152344,0.138672 0.09132,-0.04214 0.178592,-0.04393 0.292969,0 0.02646,-0.0026 0.05194,-0.0031 0.07813,0.0039 0.188462,0.0502 0.248112,0.184668 0.261719,0.332032 0.02798,-0.01547 0.05737,-0.02839 0.0918,-0.0332 0.08304,-0.01162 0.165237,0.02592 0.248047,0.03906 0.04279,0.04454 0.09278,0.08272 0.128907,0.132813 0.02337,0.03241 0.03827,0.0756 0.04883,0.121093 0.09218,-0.0546 0.196419,-0.08014 0.314453,-0.03906 l 0.002,0.002 c 0.02555,-0.123204 0.06346,-0.243142 0.142578,-0.34375 0.01796,-0.02284 0.04087,-0.04306 0.06055,-0.06445 0.13622,-0.120312 0.316446,-0.161876 0.490234,-0.103516 0.02843,0.0095 0.0546,0.02497 0.08203,0.03711 0.02901,0.0213 0.06066,0.03883 0.08594,0.06445 0.09394,0.0952 0.132759,0.198687 0.144531,0.310547 0.04252,-0.07273 0.10356,-0.132894 0.199219,-0.152344 0.08991,-0.01828 0.187886,0.0052 0.271484,0.04297 0.0048,0.0022 0.0091,0.0054 0.01367,0.0078 0.08045,-0.19311 0.214233,-0.312325 0.496094,-0.21875 0.02322,0.0077 0.04311,0.01797 0.06055,0.03125 0.0011,-0.0017 8.47e-4,-0.0042 0.002,-0.0059 0.02467,-0.03649 0.05455,-0.06909 0.08203,-0.103516 0.07565,-0.03148 0.144723,-0.08965 0.226563,-0.09375 0.173871,-0.0087 0.310377,0.101463 0.40625,0.236328 0.05694,-0.06804 0.125584,-0.124874 0.21875,-0.130859 0.09423,-0.0061 0.190344,0.02188 0.277344,0.05859 0.05534,0.02335 0.1086,0.08724 0.154296,0.148437 0.01388,-0.02736 0.02924,-0.0546 0.04297,-0.08203 0.03614,-0.036 0.0624,-0.08753 0.109375,-0.107422 0.198991,-0.08427 0.286789,-0.08039 0.449219,0.03516 0.09501,0.06759 0.14631,0.17634 0.1875,0.283203 0.05394,-0.05137 0.122811,-0.08517 0.207031,-0.09375 0.03082,-0.06941 0.06349,-0.139094 0.101563,-0.205078 0.127483,-0.186386 0.34564,-0.251694 0.55664,-0.177734 0.0339,0.01189 0.06382,0.03228 0.0957,0.04883 0.06469,0.04199 0.117474,0.09379 0.16211,0.152344 0.08411,0.04022 0.168231,0.11999 0.236328,0.248047 0.03587,0.06746 0.0196,0.0323 0.05078,0.101562 0.03672,0.103041 0.0637,0.212104 0.0625,0.322266 -0.0042,0.0751 -0.01202,0.148866 -0.02734,0.222656 -0.0094,0.04342 -0.02104,0.08534 -0.02734,0.128906 -0.002,0.04598 -0.0018,0.102234 -0.002,0.152344 -1.5e-5,0.06151 8.4e-5,0.124037 0,0.185547 -1.04e-4,0.06285 5.44e-4,0.12465 0,0.1875 -7e-4,0.06888 -0.0027,0.138211 -0.0059,0.207031 -0.0045,0.08477 -0.0089,0.170816 -0.02734,0.253906 -0.01832,0.07696 -0.04283,0.152383 -0.07031,0.226563 -0.02456,0.056 -0.04955,0.112402 -0.08203,0.164062 -0.03606,0.08546 -0.05672,0.178836 -0.103516,0.259766 -0.04914,0.04813 -0.08175,0.125718 -0.148437,0.142578 -0.262756,0.06643 -0.419671,-0.0335 -0.478516,-0.248047 -0.03138,0.002 -0.06098,0.0032 -0.0918,-0.002 -0.168146,-0.02801 -0.289873,-0.158065 -0.367187,-0.300781 -0.01969,0.01654 -0.04032,0.03284 -0.0625,0.04492 -0.04073,0.02218 -0.08596,0.03524 -0.128907,0.05273 -0.07262,-0.0088 -0.153338,0.009 -0.216796,-0.02734 -0.034,-0.0195 -0.06066,-0.04154 -0.08398,-0.06445 -0.06608,0.204055 -0.154484,0.401536 -0.316406,0.546875 -0.03002,0.02696 -0.06474,0.04698 -0.09766,0.07031 -0.0299,0.01515 -0.05869,0.03255 -0.08984,0.04492 -0.151536,0.06017 -0.332748,0.06637 -0.464844,-0.04492 -0.03528,-0.02973 -0.06414,-0.06791 -0.0957,-0.101563 -0.01685,-0.03553 -0.03772,-0.06838 -0.05078,-0.105468 -0.01665,-0.04727 -0.02097,-0.09586 -0.02148,-0.144532 -0.02365,0.03831 -0.04762,0.07697 -0.07422,0.113282 -0.03511,0.04794 -0.06203,0.110238 -0.115235,0.136718 -0.112439,0.05595 -0.24226,0.06603 -0.363281,0.09961 -0.06105,-0.04446 -0.128001,-0.07964 -0.181641,-0.132813 -0.02737,-0.02713 -0.04152,-0.06534 -0.05469,-0.101562 -0.0074,-0.02038 -0.01113,-0.04203 -0.01563,-0.0625 -0.05656,0.07006 -0.12251,0.133712 -0.199219,0.162109 -0.191367,0.07083 -0.277671,0.04119 -0.433594,-0.08789 -0.03264,-0.02702 -0.04253,-0.07312 -0.06445,-0.109375 -0.01027,-0.03782 -0.02475,-0.07463 -0.03125,-0.113281 -0.01437,-0.08589 1.72e-4,-0.170434 0.02148,-0.253906 -0.08121,0.05836 -0.164707,0.09663 -0.25,0.113281 -0.01134,0.007 -0.02137,0.01496 -0.0332,0.02148 -0.105772,0.04393 -0.157504,0.07717 -0.283203,0.06641 -0.06588,-0.0056 -0.124504,-0.02409 -0.175781,-0.05469 -0.05678,0.155058 -0.160971,0.340258 -0.302734,0.429688 -0.04725,0.02981 -0.101764,0.04658 -0.152344,0.07031 -0.04218,0.0046 -0.08452,0.01334 -0.126953,0.01367 -0.135764,0.0011 -0.268247,-0.06381 -0.378906,-0.134765 -0.02346,-0.02246 -0.04996,-0.0411 -0.07031,-0.06641 -0.0297,-0.03692 -0.04976,-0.07808 -0.06641,-0.11914 -0.02215,0.01381 -0.04504,0.02628 -0.06641,0.04102 -0.03623,0.01142 -0.07007,0.0263 -0.107422,0.0332 -0.170169,0.03148 -0.329853,-0.02838 -0.441406,-0.15039 -0.143303,0.195222 -0.305585,0.374931 -0.529297,0.482422 -0.0536,0.02575 -0.112029,0.04039 -0.167969,0.06055 -0.16814,0.02054 -0.203053,0.04213 -0.371094,-0.0098 -0.163821,-0.0506 -0.313282,-0.19507 -0.351562,-0.365234 -0.01449,-0.06441 6.94e-4,-0.131136 0.002,-0.197266 -0.04037,0.06916 -0.08232,0.138242 -0.126953,0.205078 -0.120537,0.127601 -0.266808,0.344872 -0.494141,0.294922 -0.196983,-0.04328 -0.28743,-0.154101 -0.328125,-0.289063 -0.07036,-0.01297 -0.142835,-0.02823 -0.195312,-0.07422 -0.168261,-0.147471 -0.171475,-0.272683 -0.115235,-0.453125 -0.0067,0.0013 -0.01283,0.0047 -0.01953,0.0059 -0.01286,0.0022 -0.02612,0.0024 -0.03906,0.0039 -0.457213,0.257718 -0.915334,0.513249 -1.388671,0.740235 -0.0591,0.01413 -0.123105,0.06957 -0.177735,0.04297 -0.142309,-0.06928 -0.304881,-0.157581 -0.363281,-0.304687 -0.06611,-0.166526 0.205895,-0.440086 0.296875,-0.535156 0.08857,-0.09256 0.201686,-0.195663 0.310547,-0.294922 -0.07052,-0.0058 -0.13505,-0.01338 -0.179688,-0.02344 -0.109665,-0.02471 -0.263149,-0.01341 -0.318359,-0.111328 -0.20619,-0.365715 -0.115193,-0.511412 0.140625,-0.621094 0.06507,-0.0279 0.136818,-0.03788 0.205078,-0.05664 0.04229,-0.01112 0.08464,-0.02217 0.126953,-0.0332 -0.04359,8.8e-5 -0.08727,4.27e-4 -0.130859,0 -0.09061,-9e-4 -0.201825,0.05015 -0.271485,-0.0078 -0.0061,-0.005 -0.01176,-0.01036 -0.01758,-0.01563 -0.015,0.0011 -0.02529,-9.15e-4 -0.02344,-0.01758 l 0.002,-0.002 c -0.08059,-0.08026 -0.138416,-0.181398 -0.195313,-0.283203 -0.526821,0.006 -1.053259,0.01177 -1.580078,0.01758 -0.04835,0.01338 -0.103062,0.03541 -0.113281,0.002 -0.0026,2.8e-5 -0.0052,-2.8e-5 -0.0078,0 -0.0064,-0.204802 -0.06369,-0.415149 -0.01953,-0.615234 0.01125,-0.05091 0.10411,-0.0037 0.15625,-0.0059 0.09023,-0.0038 0.179303,-0.0079 0.269531,-0.01172 0.466716,-0.01986 0.934064,-0.0407 1.400391,-0.06836 0.330586,-0.022 0.59458,-0.03869 0.902344,-0.06641 -0.0646,-0.01393 -0.129113,-0.02723 -0.193359,-0.04297 -0.126483,-0.03179 -0.25139,-0.06431 -0.376954,-0.09766 -0.182798,0.01252 -0.36612,0.02528 -0.548828,0.03711 -0.100899,0.0062 -0.201774,0.01443 -0.302734,0.01953 -0.06636,0.0034 -0.133109,0.01256 -0.199219,0.0059 -0.305649,-0.0311 -0.330796,-0.172938 -0.138672,-0.566406 -0.07862,-0.05536 -0.149414,-0.111869 -0.179687,-0.16211 -0.07021,-0.116526 -0.07953,-0.260474 -0.119141,-0.390625 0.05265,-0.0843 0.0895,-0.182086 0.158203,-0.253906 0.07794,-0.08149 0.287434,-0.140596 0.388672,-0.166016 0.240628,-0.06043 0.489174,-0.08861 0.734375,-0.125 0.165097,-0.111639 0.353461,-0.186664 0.533203,-0.271484 0.01577,-0.0069 0.0311,-0.01462 0.04687,-0.02148 0.333758,-0.393045 -0.906648,-0.114879 -0.414062,-0.44336 0.05572,-0.03716 0.115074,-0.06782 0.175781,-0.09375 -0.02427,-0.01205 -0.0031,-0.06367 0.02734,-0.15039 -0.02987,-0.462528 -0.135653,-0.454997 0.08398,-0.455079 0.08447,-2e-5 0.169436,9.8e-5 0.253906,0 0.09017,-1.22e-4 0.181325,-0.0013 0.271485,-0.002 0.07956,-7e-4 0.158771,-7.06e-4 0.238281,-0.0039 0.05981,-0.0029 0.118594,-0.0075 0.177734,-0.01758 0.0597,-0.008 0.120222,-0.01193 0.179688,-0.0098 z m -1.898438,2.136719 c -0.05157,0.0083 -0.103143,0.01703 -0.154296,0.02734 0.04826,0.02676 0.09645,0.05296 0.146484,0.07617 0.01152,0.0053 0.02361,0.0085 0.03516,0.01367 -0.01428,-0.03764 -0.02493,-0.07692 -0.02734,-0.117188 z m -0.408203,0.09375 c -0.0073,0.003 -0.01432,0.0064 -0.02148,0.0098 -0.01748,0.0081 -0.05962,0.04876 -0.04297,0.03906 0.02326,-0.01361 0.04311,-0.03228 0.06445,-0.04883 z m 10.554688,1.501953 c -0.0039,0.0048 -0.0063,0.02156 -0.0078,0.0293 -0.0011,0.0058 -0.0011,0.01178 -0.002,0.01758 0.0031,-0.0043 0.0043,-0.0069 0.0078,-0.01172 0.0021,-0.01156 0.01416,-0.02686 0.0059,-0.03516 -0.0019,-0.0019 -0.0026,-0.0016 -0.0039,0 z m -3.351563,0.09375 c -0.0024,0.0048 -0.0019,0.01066 -0.0039,0.01563 0.0037,-0.0038 0.0085,-0.0073 0.01172,-0.01172 4e-4,-0.0022 -0.0011,-0.01761 -0.0078,-0.0039 z m 2.605469,0.0059 c -0.0051,-0.002 -0.0078,0.0079 -0.01172,0.01172 -0.0025,0.0048 -0.0035,0.01072 -0.0059,0.01563 0.0046,-0.004 0.009,-0.008 0.01367,-0.01172 0.0039,-0.0031 0.0085,-0.01373 0.0039,-0.01563 z m 1.664063,0.144531 c -0.0011,0.0027 -0.0028,0.0051 -0.0039,0.0078 0.0013,0.0036 0.0046,0.0062 0.0059,0.0098 -4.92e-4,-0.0059 -0.0014,-0.01164 -0.002,-0.01758 z m -10.464844,0.976562 c -0.01315,0.0036 -0.02591,0.0081 -0.03906,0.01172 0.01286,-1.62e-4 0.03391,0.01246 0.03711,0 9.77e-4,-0.0038 10e-4,-0.0079 0.002,-0.01172 z m 4.6875,0.482422 c 0.004,0.01307 0.0089,0.02298 0.0098,0.01367 -0.0025,-0.0053 -0.0068,-0.0089 -0.0098,-0.01367 z m 0.71289,0.269532 c 3.63e-4,0.01669 8.04e-4,0.03866 0.002,0.0332 0.0023,-0.01121 0.003,-0.02257 0.002,-0.0332 -0.0038,-0.02789 -0.0043,-0.01669 -0.0039,0 z m 1.857422,0.02148 c -0.0026,0.0098 -0.0062,0.01935 -0.0078,0.0293 -3e-4,0.002 0.0021,0.0048 0.0039,0.0039 0.01057,-0.0049 0.0075,-0.01935 0.0039,-0.0332 z m 0.714844,0.113281 c -0.001,0.0084 -0.0018,0.01692 -0.002,0.02539 0,0.0023 0.0038,0.0082 0.0039,0.0059 2.67e-4,-0.0063 -0.0012,-0.01914 -0.002,-0.03125 z m 0.820312,0.04687 c -0.0053,0.01604 -0.0088,0.02812 -0.002,0.02734 0.0059,-6.73e-4 0.0055,-0.01126 0.002,-0.02734 z m -5.40039,0.0332 c -0.03953,0.04971 -0.04244,0.04741 -0.01367,0.04687 0.0081,-0.02845 0.01019,-0.03504 0.01367,-0.04687 z"/></clipPath><clipPath id="clipPath9-1" clipPathUnits="userSpaceOnUse"><path id="path9-3" style="fill:red;fill-opacity:1;fill-rule:nonzero;stroke:none" d="m 13.853516,3.5703125 v 6.6874995 c 0.06321,-4.27e-4 0.126534,-0.0015 0.189453,-0.002 0.07956,-7e-4 0.158771,-7.06e-4 0.238281,-0.0039 0.05981,-0.0029 0.118594,-0.0075 0.177734,-0.01758 0.0597,-0.008 0.120222,-0.01193 0.179688,-0.0098 0.05947,0.0022 0.119308,0.01228 0.177734,0.0293 0.06754,0.01837 0.133858,0.03817 0.199219,0.0625 0.08969,8.45e-4 0.179961,6.96e-4 0.269531,0.0059 0.232476,0.02308 0.296721,0.0096 0.421875,0.361328 0.01274,0.0358 -0.0038,0.07315 -0.02344,0.109375 0.01239,0.03252 0.0234,0.06581 0.03711,0.09766 -0.06585,0.09006 -0.1208,0.188892 -0.195312,0.271484 0.165408,-0.02205 0.266678,-0.0012 0.318359,0.236329 0.114414,0.02409 0.151338,0.136499 0.228516,0.523437 0.01,0.04995 -0.07459,0.06974 -0.117188,0.09766 -0.04222,0.02767 -0.09061,0.04781 -0.136719,0.06836 -0.165815,0.07389 -0.278948,0.109365 -0.455078,0.171875 -0.02662,0.0093 -0.05346,0.01803 -0.08008,0.02734 0.265699,0.0028 0.665752,-0.01267 0.626953,0.439453 -0.02374,0.27669 -0.454507,0.317772 -0.61914,0.357422 -0.01173,0.0019 -0.02342,0.004 -0.03516,0.0059 0.04506,0.01489 0.08175,0.02834 0.0957,0.04492 0.08595,0.102147 0.118115,0.239933 0.177735,0.359375 -0.01576,0.01532 -0.02973,0.0328 -0.04492,0.04883 0.04929,-5.24e-4 0.09915,-0.0013 0.148437,-0.002 0.03089,-0.04752 0.145803,-0.225613 0.166016,-0.251954 0.165464,-0.215607 0.261232,-0.202134 0.611328,0.144532 0.01485,0.0147 -0.01326,0.118359 -0.04687,0.224609 0.128682,-0.10279 0.315784,-0.236518 0.453125,-0.138672 0.01203,0.0086 0.01852,0.01696 0.0293,0.02539 0.117259,-0.141372 0.284668,-0.295429 0.441406,-0.210938 0.06048,0.0326 0.109439,0.08281 0.152344,0.138672 0.09132,-0.04214 0.178592,-0.04393 0.292969,0 0.02646,-0.0026 0.05194,-0.0031 0.07813,0.0039 0.188462,0.0502 0.248112,0.184668 0.261719,0.332032 0.02798,-0.01547 0.05737,-0.02839 0.0918,-0.0332 0.08304,-0.01162 0.165237,0.02592 0.248047,0.03906 0.04279,0.04454 0.09278,0.08272 0.128907,0.132813 0.02337,0.03241 0.03827,0.0756 0.04883,0.121093 0.09218,-0.0546 0.196419,-0.08014 0.314453,-0.03906 l 0.002,0.002 c 0.02555,-0.123204 0.06346,-0.243142 0.142578,-0.34375 0.01796,-0.02284 0.04087,-0.04306 0.06055,-0.06445 0.13622,-0.120312 0.316446,-0.161876 0.490234,-0.103516 0.02843,0.0095 0.0546,0.02497 0.08203,0.03711 0.02901,0.0213 0.06066,0.03883 0.08594,0.06445 0.09394,0.0952 0.132759,0.198687 0.144531,0.310547 0.04252,-0.07273 0.10356,-0.132894 0.199219,-0.152344 0.08991,-0.01828 0.187886,0.0052 0.271484,0.04297 0.0048,0.0022 0.0091,0.0054 0.01367,0.0078 0.08045,-0.19311 0.214233,-0.312325 0.496094,-0.21875 0.02322,0.0077 0.04311,0.01797 0.06055,0.03125 0.0011,-0.0017 8.47e-4,-0.0042 0.002,-0.0059 0.02467,-0.03649 0.05455,-0.06909 0.08203,-0.103516 0.07565,-0.03148 0.144723,-0.08965 0.226563,-0.09375 0.173871,-0.0087 0.310377,0.101463 0.40625,0.236328 0.05694,-0.06804 0.125584,-0.124874 0.21875,-0.130859 0.09423,-0.0061 0.190344,0.02188 0.277344,0.05859 0.05534,0.02335 0.1086,0.08724 0.154296,0.148437 0.01388,-0.02736 0.02924,-0.0546 0.04297,-0.08203 0.03614,-0.036 0.0624,-0.08753 0.109375,-0.107422 0.198991,-0.08427 0.286789,-0.08039 0.449219,0.03516 0.09501,0.06759 0.14631,0.17634 0.1875,0.283203 0.05394,-0.05137 0.122811,-0.08517 0.207031,-0.09375 0.03082,-0.06941 0.06349,-0.139094 0.101563,-0.205078 0.127483,-0.186386 0.34564,-0.251694 0.55664,-0.177734 0.0339,0.01189 0.06382,0.03228 0.0957,0.04883 0.06469,0.04199 0.117474,0.09379 0.16211,0.152344 0.08411,0.04022 0.168231,0.11999 0.236328,0.248047 0.03587,0.06746 0.0196,0.0323 0.05078,0.101562 0.03672,0.103041 0.0637,0.212104 0.0625,0.322266 -0.0042,0.0751 -0.01202,0.148866 -0.02734,0.222656 -0.0094,0.04342 -0.02104,0.08534 -0.02734,0.128906 -0.002,0.04598 -0.0018,0.102234 -0.002,0.152344 -1.5e-5,0.06151 8.4e-5,0.124037 0,0.185547 -1.04e-4,0.06285 5.44e-4,0.12465 0,0.1875 -7e-4,0.06888 -0.0027,0.138211 -0.0059,0.207031 -0.0036,0.06846 -0.0086,0.137191 -0.01953,0.205078 h 5.160156 V 3.5703125 Z m 9.033203,10.3867185 c -0.0039,0.0048 -0.0063,0.02156 -0.0078,0.0293 -0.0011,0.0058 -0.0011,0.01178 -0.002,0.01758 0.0031,-0.0043 0.0043,-0.0069 0.0078,-0.01172 0.0021,-0.01156 0.01416,-0.02686 0.0059,-0.03516 -0.0019,-0.0019 -0.0026,-0.0016 -0.0039,0 z m -3.351563,0.09375 c -0.0024,0.0048 -0.0019,0.01066 -0.0039,0.01563 0.0037,-0.0038 0.0085,-0.0073 0.01172,-0.01172 4e-4,-0.0022 -0.0011,-0.01761 -0.0078,-0.0039 z m 2.605469,0.0059 c -0.0051,-0.002 -0.0078,0.0079 -0.01172,0.01172 -0.0025,0.0048 -0.0035,0.01072 -0.0059,0.01563 0.0046,-0.004 0.009,-0.008 0.01367,-0.01172 0.0039,-0.0031 0.0085,-0.01373 0.0039,-0.01563 z m 1.664063,0.144531 c -0.0011,0.0027 -0.0028,0.0051 -0.0039,0.0078 0.0013,0.0036 0.0046,0.0062 0.0059,0.0098 -4.92e-4,-0.0059 -0.0014,-0.01164 -0.002,-0.01758 z"/></clipPath></defs><g id="layer1"><text xml:space="preserve" style="font-style:normal;font-variant:normal;font-weight:400;font-stretch:normal;font-size:.4px;font-family:Sans;-inkscape-font-specification:Sans;fill:none;fill-opacity:1;stroke:#000;stroke-width:.01;stroke-miterlimit:3.8;stroke-dasharray:none;stroke-opacity:1" id="text14" x="7.598" y="32.42"><tspan id="tspan15" x="7.598" y="32.42" style="font-style:normal;font-variant:normal;font-weight:400;font-stretch:normal;font-size:.4px;font-family:Monospace;-inkscape-font-specification:Monospace;fill:none;fill-opacity:1;stroke:#000;stroke-width:.01;stroke-miterlimit:3.8;stroke-dasharray:none;stroke-opacity:1">Mar is amazing, btw</tspan></text><path style="fill:none;stroke:#000;stroke-width:1.77261;stroke-miterlimit:3.8;stroke-dasharray:none" id="path1" d="M 8.0333268,24.090685 C 23.780248,7.7421949 23.823273,7.6991724 23.823273,7.6991724 Z"/><path style="fill:none;stroke:#000;stroke-width:1.77261;stroke-miterlimit:3.8;stroke-dasharray:none" id="path2" d="M 8.0002387,7.622279 C 23.8002,24.103986 23.8002,24.103986 23.8002,24.103986 v 0 z"/></g></svg>