<svg xmlns="http://www.w3.org/2000/svg" xmlns:svg="http://www.w3.org/2000/svg" id="svg1" width="32" height="32" version="1.1" viewBox="0 0 32 32"><defs id="defs1"><rect id="rect13" width="7.015" height="4.417" x="9.007" y="27.064"/><rect id="rect11" width="15.762" height="3.074" x="2.771" y="29.792"/><rect id="rect10" width="26.577" height="5.389" x=".367" y="29.639"/><clipPath id="clipPath10" clipPathUnits="userSpaceOnUse"><path id="path10" style="fill:red;fill-opacity:1;fill-rule:nonzero;stroke:none" d="M 6.0371094,8.6914062 V 25.097656 H 26.130859 V 8.6914062 Z m 8.6015626,1.5332028 c 0.05947,0.0022 0.119308,0.01228 0.177734,0.0293 0.06754,0.01837 0.133858,0.03817 0.199219,0.0625 0.08969,8.45e-4 0.179961,6.96e-4 0.269531,0.0059 0.232476,0.02308 0.296721,0.0096 0.421875,0.361328 0.01274,0.0358 -0.0038,0.07315 -0.02344,0.109375 0.01239,0.03252 0.0234,0.06581 0.03711,0.09766 -0.06585,0.09006 -0.1208,0.188892 -0.195312,0.271484 0.165408,-0.02205 0.266678,-0.0012 0.318359,0.236329 0.114414,0.02409 0.151338,0.136499 0.228516,0.523437 0.01,0.04995 -0.07459,0.06974 -0.117188,0.09766 -0.04222,0.02767 -0.09061,0.04781 -0.136719,0.06836 -0.165815,0.07389 -0.278948,0.109365 -0.455078,0.171875 -0.02662,0.0093 -0.05346,0.01803 -0.08008,0.02734 0.265699,0.0028 0.665752,-0.01267 0.626953,0.439453 -0.02374,0.27669 -0.454507,0.317772 -0.61914,0.357422 -0.01173,0.0019 -0.02342,0.004 -0.03516,0.0059 0.04506,0.01489 0.08175,0.02834 0.0957,0.04492 0.08595,0.102147 0.118115,0.239933 0.177735,0.359375 -0.01576,0.01532 -0.02973,0.0328 -0.04492,0.04883 0.04929,-5.24e-4 0.09915,-0.0013 0.148437,-0.002 0.03089,-0.04752 0.145803,-0.225613 0.166016,-0.251954 0.165464,-0.215607 0.261232,-0.202134 0.611328,0.144532 0.01485,0.0147 -0.01326,0.118359 -0.04687,0.224609 0.128682,-0.10279 0.315784,-0.236518 0.453125,-0.138672 0.01203,0.0086 0.01852,0.01696 0.0293,0.02539 0.117259,-0.141372 0.284668,-0.295429 0.441406,-0.210938 0.06048,0.0326 0.109439,0.08281 0.152344,0.138672 0.09132,-0.04214 0.178592,-0.04393 0.292969,0 0.02646,-0.0026 0.05194,-0.0031 0.07813,0.0039 0.188462,0.0502 0.248112,0.184668 0.261719,0.332032 0.02798,-0.01547 0.05737,-0.02839 0.0918,-0.0332 0.08304,-0.01162 0.165237,0.02592 0.248047,0.03906 0.04279,0.04454 0.09278,0.08272 0.128907,0.132813 0.02337,0.03241 0.03827,0.0756 0.04883,0.121093 0.09218,-0.0546 0.196419,-0.08014 0.314453,-0.03906 l 0.002,0.002 c 0.02555,-0.123204 0.06346,-0.243142 0.142578,-0.34375 0.01796,-0.02284 0.04087,-0.04306 0.06055,-0.06445 0.13622,-0.120312 0.316446,-0.161876 0.490234,-0.103516 0.02843,0.0095 0.0546,0.02497 0.08203,0.03711 0.02901,0.0213 0.06066,0.03883 0.08594,0.06445 0.09394,0.0952 0.132759,0.198687 0.144531,0.310547 0.04252,-0.07273 0.10356,-0.132894 0.199219,-0.152344 0.08991,-0.01828 0.187886,0.0052 0.271484,0.04297 0.0048,0.0022 0.0091,0.0054 0.01367,0.0078 0.08045,-0.19311 0.214233,-0.312325 0.496094,-0.21875 0.02322,0.0077 0.04311,0.01797 0.06055,0.03125 0.0011,-0.0017 8.47e-4,-0.0042 0.002,-0.0059 0.02467,-0.03649 0.05455,-0.06909 0.08203,-0.103516 0.07565,-0.03148 0.144723,-0.08965 0.226563,-0.09375 0.173871,-0.0087 0.310377,0.101463 0.40625,0.236328 0.05694,-0.06804 0.125584,-0.124874 0.21875,-0.130859 0.09423,-0.0061 0.190344,0.02188 0.277344,0.05859 0.05534,0.02335 0.1086,0.08724 0.154296,0.148437 0.01388,-0.02736 0.02924,-0.0546 0.04297,-0.08203 0.03614,-0.036 0.0624,-0.08753 0.109375,-0.107422 0.198991,-0.08427 0.286789,-0.08039 0.449219,0.03516 0.09501,0.06759 0.14631,0.17634 0.1875,0.283203 0.05394,-0.05137 0.122811,-0.08517 0.207031,-0.09375 0.03082,-0.06941 0.06349,-0.139094 0.101563,-0.205078 0.127483,-0.186386 0.34564,-0.251694 0.55664,-0.177734 0.0339,0.01189 0.06382,0.03228 0.0957,0.04883 0.06469,0.04199 0.117474,0.09379 0.16211,0.152344 0.08411,0.04022 0.168231,0.11999 0.236328,0.248047 0.03587,0.06746 0.0196,0.0323 0.05078,0.101562 0.03672,0.103041 0.0637,0.212104 0.0625,0.322266 -0.0042,0.0751 -0.01202,0.148866 -0.02734,0.222656 -0.0094,0.04342 -0.02104,0.08534 -0.02734,0.128906 -0.002,0.04598 -0.0018,0.102234 -0.002,0.152344 -1.5e-5,0.06151 8.4e-5,0.124037 0,0.185547 -1.04e-4,0.06285 5.44e-4,0.12465 0,0.1875 -7e-4,0.06888 -0.0027,0.138211 -0.0059,0.207031 -0.0045,0.08477 -0.0089,0.170816 -0.02734,0.253906 -0.01832,0.07696 -0.04283,0.152383 -0.07031,0.226563 -0.02456,0.056 -0.04955,0.112402 -0.08203,0.164062 -0.03606,0.08546 -0.05672,0.178836 -0.103516,0.259766 -0.04914,0.04813 -0.08175,0.125718 -0.148437,0.142578 -0.262756,0.06643 -0.419671,-0.0335 -0.478516,-0.248047 -0.03138,0.002 -0.06098,0.0032 -0.0918,-0.002 -0.168146,-0.02801 -0.289873,-0.158065 -0.367187,-0.300781 -0.01969,0.01654 -0.04032,0.03284 -0.0625,0.04492 -0.04073,0.02218 -0.08596,0.03524 -0.128907,0.05273 -0.07262,-0.0088 -0.153338,0.009 -0.216796,-0.02734 -0.034,-0.0195 -0.06066,-0.04154 -0.08398,-0.06445 -0.06608,0.204055 -0.154484,0.401536 -0.316406,0.546875 -0.03002,0.02696 -0.06474,0.04698 -0.09766,0.07031 -0.0299,0.01515 -0.05869,0.03255 -0.08984,0.04492 -0.151536,0.06017 -0.332748,0.06637 -0.464844,-0.04492 -0.03528,-0.02973 -0.06414,-0.06791 -0.0957,-0.101563 -0.01685,-0.03553 -0.03772,-0.06838 -0.05078,-0.105468 -0.01665,-0.04727 -0.02097,-0.09586 -0.02148,-0.144532 -0.02365,0.03831 -0.04762,0.07697 -0.07422,0.113282 -0.03511,0.04794 -0.06203,0.110238 -0.115235,0.136718 -0.112439,0.05595 -0.24226,0.06603 -0.363281,0.09961 -0.06105,-0.04446 -0.128001,-0.07964 -0.181641,-0.132813 -0.02737,-0.02713 -0.04152,-0.06534 -0.05469,-0.101562 -0.0074,-0.02038 -0.01113,-0.04203 -0.01563,-0.0625 -0.05656,0.07006 -0.12251,0.133712 -0.199219,0.162109 -0.191367,0.07083 -0.277671,0.04119 -0.433594,-0.08789 -0.03264,-0.02702 -0.04253,-0.07312 -0.06445,-0.109375 -0.01027,-0.03782 -0.02475,-0.07463 -0.03125,-0.113281 -0.01437,-0.08589 1.72e-4,-0.170434 0.02148,-0.253906 -0.08121,0.05836 -0.164707,0.09663 -0.25,0.113281 -0.01134,0.007 -0.02137,0.01496 -0.0332,0.02148 -0.105772,0.04393 -0.157504,0.07717 -0.283203,0.06641 -0.06588,-0.0056 -0.124504,-0.02409 -0.175781,-0.05469 -0.05678,0.155058 -0.160971,0.340258 -0.302734,0.429688 -0.04725,0.02981 -0.101764,0.04658 -0.152344,0.07031 -0.04218,0.0046 -0.08452,0.01334 -0.126953,0.01367 -0.135764,0.0011 -0.268247,-0.06381 -0.378906,-0.134765 -0.02346,-0.02246 -0.04996,-0.0411 -0.07031,-0.06641 -0.0297,-0.03692 -0.04976,-0.07808 -0.06641,-0.11914 -0.02215,0.01381 -0.04504,0.02628 -0.06641,0.04102 -0.03623,0.01142 -0.07007,0.0263 -0.107422,0.0332 -0.170169,0.03148 -0.329853,-0.02838 -0.441406,-0.15039 -0.143303,0.195222 -0.305585,0.374931 -0.529297,0.482422 -0.0536,0.02575 -0.112029,0.04039 -0.167969,0.06055 -0.16814,0.02054 -0.203053,0.04213 -0.371094,-0.0098 -0.163821,-0.0506 -0.313282,-0.19507 -0.351562,-0.365234 -0.01449,-0.06441 6.94e-4,-0.131136 0.002,-0.197266 -0.04037,0.06916 -0.08232,0.138242 -0.126953,0.205078 -0.120537,0.127601 -0.266808,0.344872 -0.494141,0.294922 -0.196983,-0.04328 -0.28743,-0.154101 -0.328125,-0.289063 -0.07036,-0.01297 -0.142835,-0.02823 -0.195312,-0.07422 -0.168261,-0.147471 -0.171475,-0.272683 -0.115235,-0.453125 -0.0067,0.0013 -0.01283,0.0047 -0.01953,0.0059 -0.01286,0.0022 -0.02612,0.0024 -0.03906,0.0039 -0.457213,0.257718 -0.915334,0.513249 -1.388671,0.740235 -0.0591,0.01413 -0.123105,0.06957 -0.177735,0.04297 -0.142309,-0.06928 -0.304881,-0.157581 -0.363281,-0.304687 -0.06611,-0.166526 0.205895,-0.440086 0.296875,-0.535156 0.08857,-0.09256 0.201686,-0.195663 0.310547,-0.294922 -0.07052,-0.0058 -0.13505,-0.01338 -0.179688,-0.02344 -0.109665,-0.02471 -0.263149,-0.01341 -0.318359,-0.111328 -0.20619,-0.365715 -0.115193,-0.511412 0.140625,-0.621094 0.06507,-0.0279 0.136818,-0.03788 0.205078,-0.05664 0.04229,-0.01112 0.08464,-0.02217 0.126953,-0.0332 -0.04359,8.8e-5 -0.08727,4.27e-4 -0.130859,0 -0.09061,-9e-4 -0.201825,0.05015 -0.271485,-0.0078 -0.0061,-0.005 -0.01176,-0.01036 -0.01758,-0.01563 -0.015,0.0011 -0.02529,-9.15e-4 -0.02344,-0.01758 l 0.002,-0.002 c -0.08059,-0.08026 -0.138416,-0.181398 -0.195313,-0.283203 -0.526821,0.006 -1.053259,0.01177 -1.580078,0.01758 -0.04835,0.01338 -0.103062,0.03541 -0.113281,0.002 -0.0026,2.8e-5 -0.0052,-2.8e-5 -0.0078,0 -0.0064,-0.204802 -0.06369,-0.415149 -0.01953,-0.615234 0.01125,-0.05091 0.10411,-0.0037 0.15625,-0.0059 0.09023,-0.0038 0.179303,-0.0079 0.269531,-0.01172 0.466716,-0.01986 0.934064,-0.0407 1.400391,-0.06836 0.330586,-0.022 0.59458,-0.03869 0.902344,-0.06641 -0.0646,-0.01393 -0.129113,-0.02723 -0.193359,-0.04297 -0.126483,-0.03179 -0.25139,-0.06431 -0.376954,-0.09766 -0.182798,0.01252 -0.36612,0.02528 -0.548828,0.03711 -0.100899,0.0062 -0.201774,0.01443 -0.302734,0.01953 -0.06636,0.0034 -0.133109,0.01256 -0.199219,0.0059 -0.305649,-0.0311 -0.330796,-0.172938 -0.138672,-0.566406 -0.07862,-0.05536 -0.149414,-0.111869 -0.179687,-0.16211 -0.07021,-0.116526 -0.07953,-0.260474 -0.119141,-0.390625 0.05265,-0.0843 0.0895,-0.182086 0.158203,-0.253906 0.07794,-0.08149 0.287434,-0.140596 0.388672,-0.166016 0.240628,-0.06043 0.489174,-0.08861 0.734375,-0.125 0.165097,-0.111639 0.353461,-0.186664 0.533203,-0.271484 0.01577,-0.0069 0.0311,-0.01462 0.04687,-0.02148 0.333758,-0.393045 -0.906648,-0.114879 -0.414062,-0.44336 0.05572,-0.03716 0.115074,-0.06782 0.175781,-0.09375 -0.02427,-0.01205 -0.0031,-0.06367 0.02734,-0.15039 -0.02987,-0.462528 -0.135653,-0.454997 0.08398,-0.455079 0.08447,-2e-5 0.169436,9.8e-5 0.253906,0 0.09017,-1.22e-4 0.181325,-0.0013 0.271485,-0.002 0.07956,-7e-4 0.158771,-7.06e-4 0.238281,-0.0039 0.05981,-0.0029 0.118594,-0.0075 0.177734,-0.01758 0.0597,-0.008 0.120222,-0.01193 0.179688,-0.0098 z m -1.898438,2.136719 c -0.05157,0.0083 -0.103143,0.01703 -0.154296,0.02734 0.04826,0.02676 0.09645,0.05296 0.146484,0.07617 0.01152,0.0053 0.02361,0.0085 0.03516,0.01367 -0.01428,-0.03764 -0.02493,-0.07692 -0.02734,-0.117188 z m -0.408203,0.09375 c -0.0073,0.003 -0.01432,0.0064 -0.02148,0.0098 -0.01748,0.0081 -0.05962,0.04876 -0.04297,0.03906 0.02326,-0.01361 0.04311,-0.03228 0.06445,-0.04883 z m 10.554688,1.501953 c -0.0039,0.0048 -0.0063,0.02156 -0.0078,0.0293 -0.0011,0.0058 -0.0011,0.01178 -0.002,0.01758 0.0031,-0.0043 0.0043,-0.0069 0.0078,-0.01172 0.0021,-0.01156 0.01416,-0.02686 0.0059,-0.03516 -0.0019,-0.0019 -0.0026,-0.0016 -0.0039,0 z m -3.351563,0.09375 c -0.0024,0.0048 -0.0019,0.01066 -0.0039,0.01563 0.0037,-0.0038 0.0085,-0.0073 0.01172,-0.01172 4e-4,-0.0022 -0.0011,-0.01761 -0.0078,-0.0039 z m 2.605469,0.0059 c -0.0051,-0.002 -0.0078,0.0079 -0.01172,0.01172 -0.0025,0.0048 -0.0035,0.01072 -0.0059,0.01563 0.0046,-0.004 0.009,-0.008 0.01367,-0.01172 0.0039,-0.0031 0.0085,-0.01373 0.0039,-0.01563 z m 1.664063,0.144531 c -0.0011,0.0027 -0.0028,0.0051 -0.0039,0.0078 0.0013,0.0036 0.0046,0.0062 0.0059,0.0098 -4.92e-4,-0.0059 -0.0014,-0.01164 -0.002,-0.01758 z m -10.464844,0.976562 c -0.01315,0.0036 -0.02591,0.0081 -0.03906,0.01172 0.01286,-1.62e-4 0.03391,0.01246 0.03711,0 9.77e-4,-0.0038 10e-4,-0.0079 0.002,-0.01172 z m 4.6875,0.482422 c 0.004,0.01307 0.0089,0.02298 0.0098,0.01367 -0.0025,-0.0053 -0.0068,-0.0089 -0.0098,-0.01367 z m 0.71289,0.269532 c 3.63e-4,0.01669 8.04e-4,0.03866 0.002,0.0332 0.0023,-0.01121 0.003,-0.02257 0.002,-0.0332 -0.0038,-0.02789 -0.0043,-0.01669 -0.0039,0 z m 1.857422,0.02148 c -0.0026,0.0098 -0.0062,0.01935 -0.0078,0.0293 -3e-4,0.002 0.0021,0.0048 0.0039,0.0039 0.01057,-0.0049 0.0075,-0.01935 0.0039,-0.0332 z m 0.714844,0.113281 c -0.001,0.0084 -0.0018,0.01692 -0.002,0.02539 0,0.0023 0.0038,0.0082 0.0039,0.0059 2.67e-4,-0.0063 -0.0012,-0.01914 -0.002,-0.03125 z m 0.820312,0.04687 c -0.0053,0.01604 -0.0088,0.02812 -0.002,0.02734 0.0059,-6.73e-4 0.0055,-0.01126 0.002,-0.02734 z m -5.40039,0.0332 c -0.03953,0.04971 -0.04244,0.04741 -0.01367,0.04687 0.0081,-0.02845 0.01019,-0.03504 0.01367,-0.04687 z"/></clipPath><clipPath id="clipPath121" clipPathUnits="userSpaceOnUse"><path id="path122" style="fill:red;fill-opacity:1;fill-rule:nonzero;stroke:none;stroke-width:1" d="m 13.854111,3.5708427 v 6.6876883 c 0.06321,-4.27e-4 0.124893,-0.0014 0.187819,-0.0023 0.07956,-6.99e-4 0.159734,-0.0012 0.239244,-0.0044 0.0598,-0.0029 0.119734,-0.0075 0.178874,-0.01759 0.0597,-0.008 0.119438,-0.01092 0.178873,-0.0088 0.05947,0.0023 0.118214,0.01158 0.17664,0.02859 0.06754,0.01838 0.133637,0.03725 0.198998,0.06158 0.08969,8.45e-4 0.180977,0.0014 0.270547,0.0066 0.232475,0.02308 0.297455,0.0089 0.422591,0.360664 0.0038,0.0107 8.82e-4,0.02197 0,0.03299 0.03342,0.0129 0.06697,0.02732 0.09615,0.04838 0.02015,0.01507 0.03091,0.02224 0.04919,0.04179 0.03131,0.03345 0.06327,0.0867 0.05366,0.13415 -0.0065,0.03212 -0.03033,0.0606 -0.04472,0.09017 -0.01501,0.01025 -0.02891,0.02166 -0.04472,0.03078 -0.0062,0.0036 -0.01162,0.0062 -0.01789,0.0088 -5.28e-4,0.04407 -0.03314,0.08649 -0.09391,0.103365 0.06354,0.02718 0.109409,0.09004 0.138628,0.224316 0.114411,0.0241 0.150888,0.136487 0.228066,0.523402 0.01,0.04995 -0.07367,0.07105 -0.116268,0.09896 -0.04086,0.02678 -0.08928,0.04612 -0.134157,0.06597 0.200445,0.03749 0.182656,0.201971 0.01789,0.230913 -0.0098,0.02337 -0.02878,0.04418 -0.05813,0.05937 0.08928,0.06205 0.145296,0.167745 0.129683,0.349669 -0.01088,0.126711 -0.108835,0.202291 -0.225829,0.252906 0.03218,0.114656 0.06252,0.229795 0.09168,0.34527 0.006,-0.0087 0.01958,-0.03155 0.02236,-0.03519 0.16546,-0.215609 0.260313,-0.201501 0.610409,0.145144 0.01485,0.0147 -0.01335,0.11807 -0.04696,0.224316 0.128682,-0.102791 0.316552,-0.236394 0.453894,-0.138547 0.01203,0.0086 0.01827,0.01576 0.02907,0.02419 0.11726,-0.141372 0.283765,-0.295612 0.440477,-0.211121 0.06048,0.0326 0.111377,0.08268 0.154281,0.138548 0.09132,-0.04214 0.178531,-0.04392 0.292907,0 0.02646,-0.0026 0.04979,-0.0026 0.07602,0.0044 0.01404,0.0037 0.02315,0.0107 0.03578,0.01539 0.275358,0.02497 0.551496,0.03979 0.827296,0.05937 0.163297,0.01129 0.326457,0.02321 0.489667,0.03519 0.128583,-0.08814 0.285882,-0.117136 0.438243,-0.06597 0.02842,0.0095 0.05306,0.02524 0.08049,0.03738 0.02901,0.0213 0.06192,0.03817 0.0872,0.06377 0.0043,0.0044 0.0071,0.0088 0.01122,0.0132 0.0637,0.0081 0.10666,0.03228 0.131919,0.06158 0.169883,-0.0057 0.339621,-0.0116 0.509793,-0.0176 0.03558,-0.0012 0.0555,-0.0036 0.07378,-0.0044 0.08441,-0.08989 0.205813,-0.125365 0.397997,-0.06158 0.02322,0.0077 0.04298,0.01742 0.06037,0.0308 0.0011,-0.0017 1.04e-4,-0.005 0.0023,-0.0066 0.02467,-0.03649 0.05524,-0.06892 0.08273,-0.103364 0.07565,-0.03148 0.143988,-0.09046 0.225829,-0.09456 0.173871,-0.0087 0.311068,0.102644 0.40694,0.23751 0.05694,-0.06804 0.123721,-0.125966 0.216885,-0.13195 0.06328,-0.0041 0.126197,0.0093 0.187818,0.02859 0.01743,-0.03594 0.03397,-0.07174 0.05142,-0.107756 0.02029,-0.04184 0.04248,-0.08344 0.06261,-0.125353 0.0136,-0.02831 0.02543,-0.05805 0.04025,-0.08577 10e-4,-0.002 0.0024,-0.0015 0.0045,-0.0023 0.13073,-0.04353 0.222055,-0.09657 0.259368,-0.09456 0.02902,0.0016 0.02617,0.03601 -0.01342,0.13415 -0.007,0.01724 -0.01302,0.0356 -0.02013,0.05278 0.04768,0.0258 0.07801,0.09445 0.05366,0.195727 -7.12e-4,0.0029 -0.0015,0.0059 -0.0023,0.0088 0.170736,-0.06631 0.260671,-0.05885 0.411411,0.04838 0.0311,0.02214 0.0556,0.04966 0.07826,0.07917 0.01192,-0.0072 0.02387,-0.01472 0.03577,-0.02199 -0.0018,-0.01013 -0.0022,-0.02066 -0.0045,-0.03078 -0.01426,-0.06423 -0.05189,-0.119117 -0.102848,-0.16054 -0.130039,-0.105684 -0.09423,-0.229139 0.0023,-0.244108 0.0438,-0.0068 0.100353,0.0083 0.158752,0.05718 0.06863,0.05744 0.123551,0.130512 0.156514,0.21332 0.02894,-0.05091 0.07031,-0.07686 0.109557,-0.07697 0.01394,-4.1e-5 0.02761,0.0024 0.04025,0.0088 0.07551,-0.05258 0.150004,-0.106428 0.221358,-0.164939 0.04712,-0.03863 0.09212,-0.05602 0.131919,-0.05937 0.101418,-0.0086 0.16126,0.08098 0.09168,0.180333 0.0437,0.0035 0.08797,0.01103 0.131919,0.02639 0.0339,0.01189 0.06427,0.03403 0.09615,0.05058 0.06469,0.04199 0.118587,0.09319 0.163222,0.151743 0.08411,0.04022 0.166676,0.120465 0.234773,0.248506 0.03587,0.06746 0.02025,0.03191 0.05142,0.101158 0.03671,0.103038 0.06381,0.210912 0.06261,0.32108 -0.0042,0.0751 -0.01153,0.150525 -0.02683,0.224316 -0.0094,0.04342 -0.02053,0.08399 -0.02683,0.127552 -0.0019,0.04598 -0.0021,0.103826 -0.0023,0.153941 -8e-6,0.06151 8.7e-5,0.123243 0,0.18473 -1.03e-4,0.06285 5.45e-4,0.12408 0,0.18693 -6.96e-4,0.06888 -0.0029,0.13791 -0.0068,0.206723 -0.0035,0.06846 -0.0092,0.138833 -0.02013,0.206723 h 5.16053 V 3.5708427 Z m 5.6815,10.4790643 c -0.0024,0.0048 -0.0025,0.01262 -0.0045,0.01759 0.0037,-0.0038 0.008,-0.0088 0.01122,-0.0132 4e-4,-0.0023 0.0011,-0.01811 -0.0068,-0.0044 z m 4.268392,0.151743 c -0.0011,0.0027 -1.04e-4,0.0039 -0.0023,0.0066 0.0013,0.0036 0.0032,0.0073 0.0045,0.01103 -4.97e-4,-0.0059 -0.0015,-0.01161 -0.0023,-0.0176 z"/></clipPath><clipPath id="clipPath124" clipPathUnits="userSpaceOnUse"><path id="path125" style="fill:red;fill-opacity:1;fill-rule:nonzero;stroke:none" d="M 6.7167969,10.757812 V 25.496094 H 24.025391 V 10.757812 Z m 7.8398441,2.007813 c 0.0031,-1.81e-4 0.0065,-3e-6 0.0098,0 0.02469,2.3e-5 0.05279,0.0053 0.08399,0.01758 0.02919,0.01146 0.05852,0.02425 0.08398,0.04297 0.0176,0.01338 0.027,0.01977 0.04297,0.03711 0.02735,0.02971 0.05527,0.077 0.04687,0.119141 -0.0057,0.02853 -0.02649,0.05383 -0.03906,0.08008 -0.01311,0.0091 -0.02525,0.01924 -0.03906,0.02734 -0.0059,0.0035 -0.01153,0.0053 -0.01758,0.0078 -4.64e-4,0.05763 -0.05929,0.110824 -0.171875,0.0957 L 14.5,13.185547 c -0.08026,-0.01074 -0.161268,-0.02154 -0.242188,-0.02344 -0.214261,-0.0049 -0.244475,-0.193243 -0.03125,-0.214843 0.0032,-3e-4 0.0066,-0.0016 0.0098,-0.002 0.0032,-3.73e-4 0.0066,4.3e-5 0.0098,0 0.05636,-7.62e-4 0.112047,0.0051 0.167968,0.01172 0.01688,-0.0078 0.03626,-0.01507 0.05859,-0.01953 0.006,-0.0012 0.01155,-0.0027 0.01758,-0.0039 -0.06689,-0.07 -0.03108,-0.162369 0.06641,-0.167969 z m -0.166016,1.212891 c 0.0063,-4.26e-4 0.01283,1.5e-5 0.01953,0 0.03558,-1e-4 0.07187,0.0022 0.107422,0.0039 0.07471,0.003 0.15072,0.0034 0.22461,0.01563 0.183099,0.03025 0.168842,0.180473 0.02344,0.207031 -0.01746,0.04208 -0.06921,0.07678 -0.15625,0.07422 -0.01819,-5e-4 -0.0365,-0.0014 -0.05469,-0.002 -0.03058,2.7e-4 -0.06096,0.0022 -0.0918,0.0039 0.129986,0.326482 0.211001,0.669309 0.294921,1.009766 0.04334,0.175767 -0.09916,0.238394 -0.175781,0.128906 -0.04561,0.08604 -0.169369,0.06902 -0.201172,-0.08594 -0.0072,-0.03497 -0.01428,-0.06854 -0.02148,-0.103515 -0.01049,-0.04954 -0.02254,-0.09884 -0.0332,-0.148438 -0.0045,-0.0054 -0.0091,-0.01021 -0.01367,-0.01563 -0.09052,-0.09816 -0.185326,-0.190587 -0.285156,-0.279297 -0.110152,-0.09787 -0.07288,-0.200443 0.01367,-0.208984 0.03934,-0.0039 0.08842,0.0104 0.138672,0.05469 0.02213,0.01951 0.04469,0.03851 0.06641,0.05859 0.0038,-0.07136 0.04497,-0.113802 0.0918,-0.115234 -0.02558,-0.0776 -0.05154,-0.154445 -0.08203,-0.230469 -0.0054,-0.01335 -0.01067,-0.0267 -0.01367,-0.03906 -0.147355,-0.006 -0.183971,-0.146098 -0.0098,-0.207032 0.0058,-0.002 0.01175,-0.004 0.01758,-0.0059 -0.0049,-0.05326 0.04227,-0.108557 0.140625,-0.115234 z m 6.181641,0.972656 c 0.0024,-2.57e-4 0.0038,-1.12e-4 0.0059,0 0.02535,0.0014 0.02286,0.03198 -0.01172,0.11914 -0.0061,0.01531 -0.01137,0.03162 -0.01758,0.04688 0.04165,0.0229 0.06814,0.08388 0.04687,0.173828 -0.01737,0.07345 -0.03453,0.146 -0.05469,0.21875 -0.02169,0.07624 -0.03537,0.126935 -0.06055,0.203125 -0.0033,0.0098 -0.0064,0.01948 -0.0098,0.0293 0.143669,-0.08462 0.287653,-0.168928 0.429688,-0.25586 0.05076,-0.03153 0.101419,-0.06406 0.152343,-0.0957 -0.0015,-0.0083 -0.0021,-0.01705 -0.0039,-0.02539 -0.01246,-0.05704 -0.04532,-0.105788 -0.08984,-0.142578 -0.11359,-0.09386 -0.08231,-0.203504 0.002,-0.216797 0.03825,-0.006 0.08766,0.0074 0.138671,0.05078 0.05985,0.05092 0.107805,0.116075 0.136719,0.189453 0.02528,-0.04521 0.06142,-0.06826 0.0957,-0.06836 0.01152,-3.4e-5 0.02268,0.0027 0.0332,0.0078 0.06662,-0.04657 0.13283,-0.09439 0.195313,-0.146485 0.04116,-0.03431 0.08047,-0.04973 0.115234,-0.05273 0.104292,-0.009 0.158977,0.102205 0.03711,0.207031 -0.09443,0.08123 -0.195403,0.153352 -0.298829,0.222657 -0.02107,0.121609 -0.06497,0.239755 -0.107421,0.355468 0.0041,0.09471 0.0063,0.190159 0.0078,0.285157 0.0035,0.214296 -0.213397,0.218224 -0.216797,0.0039 -1.24e-4,-0.0078 1.26e-4,-0.01564 0,-0.02344 -0.0558,-0.01404 -0.09387,-0.08524 -0.05273,-0.191406 0.01385,-0.03572 0.02731,-0.07164 0.04102,-0.107422 -0.0018,-0.03711 -0.0011,-0.07428 -0.0039,-0.111328 -0.02288,0.01411 -0.04557,0.02881 -0.06836,0.04297 -0.195522,0.119697 -0.392673,0.23657 -0.589844,0.353516 -0.02942,0.01745 -0.05528,0.02545 -0.08008,0.0293 -0.02199,0.04549 -0.04558,0.09078 -0.07031,0.134766 -0.04461,0.07416 -0.08764,0.15126 -0.142579,0.21875 -0.02595,0.03187 -0.04835,0.06936 -0.08398,0.08984 -0.04104,0.02359 -0.08995,0.04441 -0.136719,0.03711 -0.09132,-0.01424 -0.09489,-0.08386 -0.111328,-0.146484 0.0015,-0.0269 0.0016,-0.05349 0.0059,-0.08008 0.0096,-0.05916 0.0424,-0.153932 0.0625,-0.207032 0.0557,-0.147168 0.121333,-0.291145 0.183593,-0.435547 0.06734,-0.147626 0.137213,-0.292989 0.207031,-0.439453 0.01772,-0.03716 0.03711,-0.0741 0.05469,-0.111328 0.01188,-0.02514 0.02221,-0.05156 0.03516,-0.07617 9e-4,-0.0018 0.0021,-0.0013 0.0039,-0.002 0.107058,-0.03624 0.184665,-0.08014 0.220704,-0.08398 z m -4.150391,0.289062 c 0.01166,-4.27e-4 0.02378,3.64e-4 0.03711,0.002 0.259916,0.02561 0.520792,0.03977 0.78125,0.05859 0.31789,0.02236 0.63556,0.04575 0.953125,0.07227 0.06158,0.0052 0.09737,0.02906 0.121094,0.05664 0.151003,-0.0052 0.301871,-0.01021 0.453125,-0.01563 0.150629,-0.0052 0.07928,-0.0045 0.220703,-0.0078 0.200181,-0.0047 0.216275,0.183892 0.04297,0.212891 -0.0012,0.05639 -0.0595,0.110084 -0.169922,0.09961 -0.234371,-0.02224 -0.468534,-0.04547 -0.703125,-0.06641 -0.0065,-5.77e-4 -0.01307,5.73e-4 -0.01953,0 -0.01259,-4.03e-4 -0.02418,-0.002 -0.03516,-0.0039 h -0.002 c -0.01175,-0.001 -0.0234,-0.0029 -0.03516,-0.0039 -0.01521,0.04071 -0.05907,0.0775 -0.140625,0.08594 -0.143986,0.01489 -0.287324,0.02975 -0.43164,0.04101 -0.249056,0.01975 -0.498651,0.03781 -0.748047,0.05274 -0.05317,0.0032 -0.08725,0.0048 -0.138672,0.0098 -0.01279,0.0013 -0.02438,0.0022 -0.03711,0.0039 -0.0079,10e-4 -0.01554,0.0044 -0.02344,0.0039 0.129518,-0.160009 -0.260762,-0.09164 -0.125,-0.175781 -0.02726,-4.62e-4 -0.05477,-0.0016 -0.08203,-0.002 -0.207613,-0.003 -0.214175,-0.206898 -0.01953,-0.216796 0.0063,-3.2e-4 0.01283,-9.7e-5 0.01953,0 0.02278,3.29e-4 0.04557,0.0015 0.06836,0.002 -0.149233,-0.04508 -0.144872,-0.20317 0.01367,-0.208985 z m 3.591797,1.117188 c -0.0017,0.01107 0.0013,0.02398 0.002,0.03516 0.0126,-0.01619 0.01512,-0.01982 -0.002,-0.03516 z"/></clipPath></defs><g id="layer1"><rect style="display:inline;fill:none;stroke:#838383;stroke-width:.47222;stroke-dasharray:none;stroke-opacity:1" id="rect1" width="13.353" height="9.937" x="13.348" y="6.765"/><rect style="fill:none;stroke:#000;stroke-width:2.44343;stroke-dasharray:none;stroke-opacity:1" id="rect1-28" width="14.581" height="10.77" x="14.467" y="4.184" clip-path="url(#clipPath121)" transform="matrix(0.87351766,0,0,0.88811753,0.92943957,3.266172)"/><text xml:space="preserve" style="font-style:normal;font-variant:normal;font-weight:400;font-stretch:normal;font-size:.4px;font-family:Sans;-inkscape-font-specification:Sans;fill:none;fill-opacity:1;stroke:#000;stroke-width:.01;stroke-miterlimit:3.8;stroke-dasharray:none;stroke-opacity:1" id="text14" x="8.92" y="32.281"><tspan id="tspan15" x="8.92" y="32.281" style="font-style:normal;font-variant:normal;font-weight:400;font-stretch:normal;font-size:.4px;font-family:Monospace;-inkscape-font-specification:Monospace;fill:none;fill-opacity:1;stroke:#000;stroke-width:.01;stroke-miterlimit:3.8;stroke-dasharray:none;stroke-opacity:1">Mar is amazing, btw</tspan></text><rect style="fill:none;stroke:#000;stroke-width:2;stroke-miterlimit:3.8" id="rect2" width="15.309" height="12.737" x="7.716" y="11.758" clip-path="url(#clipPath124)"/></g></svg>